# xmcd
# 
# Track frame offsets:
#     150
#     17300
#     27685
#     42545
#     55385
#     71795
#     87395
#     102685
#     116540
#     130540
#     147240
#     160810
#     176710
#     191347
#     204822
#     219477
#     232397
#     247847
# 
# Disc length: 3487
# 
# Revision: 1
# Processed by: cddbd v1.5.2PL0 Copyright (c) Steve Scherf et al.
# Submitted via: fre:ac v1.0.27
# 
DISCID=050d9d12
DTITLE=Scott Joplin - The All-Time Ragtimer
DYEAR=2008
DGENRE=Classical
TTITLE0=The Entertainer
TTITLE1=The Easy Winners
TTITLE2=Elite Syncopations
TTITLE3=The Sycamore
TTITLE4=The Ragtime Dance
TTITLE5=Weeping Willow Rag
TTITLE6=Something Doing
TTITLE7=Peacherine Rag
TTITLE8=Sunflower Slow Drag
TTITLE9=Original Rags
TTITLE10=Swipesy Cakewalk
TTITLE11=Combination March
TTITLE12=Fig Leaf Rag
TTITLE13=The Cascades
TTITLE14=The Favorite
TTITLE15=Rose Leaf Rag
TTITLE16=Gladiolus Rag
TTITLE17=The Strenuous Life
EXTD=YEAR: 2008
EXTT0=
EXTT1=
EXTT2=
EXTT3=
EXTT4=
EXTT5=
EXTT6=
EXTT7=
EXTT8=
EXTT9=
EXTT10=
EXTT11=
EXTT12=
EXTT13=
EXTT14=
EXTT15=
EXTT16=
EXTT17=
PLAYORDER=
